<?xml version="1.0" encoding="utf-8"?>
<!-- Generator: Adobe Illustrator 15.0.0, SVG Export Plug-In  -->
<!DOCTYPE svg PUBLIC "-//W3C//DTD SVG 1.1//EN" "http://www.w3.org/Graphics/SVG/1.1/DTD/svg11.dtd" [
	<!ENTITY ns_flows "http://ns.adobe.com/Flows/1.0/">
]>
<svg version="1.1"
	 xmlns="http://www.w3.org/2000/svg" xmlns:xlink="http://www.w3.org/1999/xlink" xmlns:a="http://ns.adobe.com/AdobeSVGViewerExtensions/3.0/"
	 x="0px" y="0px" width="30px" height="30px" viewBox="0 -4 30 30" style="overflow:visible;enable-background:new 0 -4 30 30;"
	 xml:space="preserve">
<style type="text/css">
<![CDATA[
	.st0{fill:#E82F5E;}
	.st1{fill:#FFFFFF;}
]]>
</style>
<defs>
</defs>
<polygon class="st0" points="12.2,22.1 6.9,22.1 0,0.1 4.8,0.1 9.6,15.6 9.6,15.6 14.5,0.1 19.3,0.1 "/>
<path class="st1" d="M29.6,20.8c-0.1-0.2-0.1-0.5-0.1-0.7c-0.1-0.2-0.1-0.4-0.1-0.7c-0.1-1-0.2-1.9-0.2-2.6c0-1.2-0.3-2.2-0.7-3.2
	c-0.5-1-1.3-1.6-2.5-1.9v-0.1c2.3-1.1,3.5-2.9,3.5-5.5c0-1.7-0.6-3.2-1.7-4.3C26.6,0.6,25.1,0,23.1,0H20l-1.2,3.8h2.7
	c2.1,0,3.2,1,3.2,3c0,2.1-1.1,3.2-3.2,3.2h-4.7l-1.1,3.4H21c1.2,0,2,0.3,2.6,0.8c0.5,0.5,0.9,1.4,1,2.6c0.1,0.9,0.2,1.8,0.3,2.7
	c0.1,0.5,0.1,0.9,0.2,1.3c0.1,0.4,0.1,0.8,0.3,1.2H30C29.8,21.7,29.6,21.3,29.6,20.8"/>
</svg>
